# Blender v2.82 (sub 7) OBJ File: ''
# www.blender.org
o Cube.001_Cube.002
v -1.000000 0.034696 -0.200000
v -1.000000 -0.034696 -0.200000
v -1.000000 0.034696 -0.400000
v -1.000000 -0.034696 -0.400000
v 1.000000 0.034696 -0.200000
v 1.000000 -0.034696 -0.200000
v 1.000000 0.034696 -0.400000
v 1.000000 -0.034696 -0.400000
v -1.000000 0.034696 0.100000
v -1.000000 -0.034696 0.100000
v -1.000000 0.034696 -0.100000
v -1.000000 -0.034696 -0.100000
v 1.000000 0.034696 0.100000
v 1.000000 -0.034696 0.100000
v 1.000000 0.034696 -0.100000
v 1.000000 -0.034696 -0.100000
v -1.000000 0.034696 0.400000
v -1.000000 -0.034696 0.400000
v -1.000000 0.034696 0.200000
v -1.000000 -0.034696 0.200000
v 1.000000 0.034696 0.400000
v 1.000000 -0.034696 0.400000
v 1.000000 0.034696 0.200000
v 1.000000 -0.034696 0.200000
vt 0.654254 0.491399
vt 0.654254 0.437124
vt 0.599978 0.437124
vt 0.602294 0.501531
vt 0.602294 0.438887
vt 0.539650 0.438887
vt 0.545637 0.545805
vt 0.545637 0.600081
vt 0.599913 0.600081
vt 0.360871 0.523270
vt 0.360871 0.578672
vt 0.416273 0.578672
vt 0.617840 0.513927
vt 0.701312 0.513927
vt 0.701312 0.430454
vt 0.681825 0.431339
vt 0.608536 0.431339
vt 0.608536 0.504629
vt 0.708595 0.491399
vt 0.708595 0.437124
vt 0.654319 0.437124
vt 0.602294 0.501569
vt 0.539650 0.501569
vt 0.539650 0.564213
vt 0.654319 0.545740
vt 0.708595 0.545740
vt 0.708595 0.491465
vt 0.360871 0.467834
vt 0.360871 0.523236
vt 0.416273 0.523236
vt 0.617790 0.513977
vt 0.534317 0.513977
vt 0.534317 0.597449
vt 0.608492 0.504673
vt 0.535203 0.504673
vt 0.535203 0.577962
vt 0.599913 0.545740
vt 0.599913 0.491465
vt 0.545637 0.491465
vt 0.664976 0.501531
vt 0.664976 0.438887
vt 0.602332 0.438887
vt 0.545637 0.491399
vt 0.599913 0.491399
vt 0.599913 0.437124
vt 0.416306 0.523236
vt 0.471708 0.523236
vt 0.471708 0.467834
vt 0.701312 0.597449
vt 0.701312 0.513977
vt 0.617840 0.513977
vt 0.608492 0.431339
vt 0.535203 0.431339
vt 0.535203 0.504629
vt 0.599978 0.491399
vt 0.539650 0.501531
vt 0.599913 0.545805
vt 0.416273 0.523270
vt 0.617840 0.430454
vt 0.681825 0.504629
vt 0.654319 0.491399
vt 0.602294 0.564213
vt 0.654319 0.491465
vt 0.416273 0.467834
vt 0.617790 0.597449
vt 0.608492 0.577962
vt 0.545637 0.545740
vt 0.602332 0.501531
vt 0.545637 0.437124
vt 0.416306 0.467834
vt 0.617840 0.597449
vt 0.608492 0.504629
vn -1.0000 0.0000 0.0000
vn 0.0000 0.0000 -1.0000
vn 1.0000 0.0000 0.0000
vn 0.0000 0.0000 1.0000
vn 0.0000 1.0000 0.0000
vn 0.0000 -1.0000 0.0000
s off
f 2/1/1 1/2/1 3/3/1
f 4/4/2 3/5/2 7/6/2
f 8/7/3 7/8/3 5/9/3
f 6/10/4 5/11/4 1/12/4
f 7/13/5 3/14/5 1/15/5
f 4/16/6 8/17/6 6/18/6
f 10/19/1 9/20/1 11/21/1
f 12/22/2 11/23/2 15/24/2
f 16/25/3 15/26/3 13/27/3
f 14/28/4 13/29/4 9/30/4
f 15/31/5 11/32/5 9/33/5
f 12/34/6 16/35/6 14/36/6
f 18/37/1 17/38/1 19/39/1
f 20/40/2 19/41/2 23/42/2
f 24/43/3 23/44/3 21/45/3
f 22/46/4 21/47/4 17/48/4
f 23/49/5 19/50/5 17/51/5
f 20/52/6 24/53/6 22/54/6
f 2/1/1 3/3/1 4/55/1
f 4/4/2 7/6/2 8/56/2
f 8/7/3 5/9/3 6/57/3
f 6/10/4 1/12/4 2/58/4
f 7/13/5 1/15/5 5/59/5
f 4/16/6 6/18/6 2/60/6
f 10/19/1 11/21/1 12/61/1
f 12/22/2 15/24/2 16/62/2
f 16/25/3 13/27/3 14/63/3
f 14/28/4 9/30/4 10/64/4
f 15/31/5 9/33/5 13/65/5
f 12/34/6 14/36/6 10/66/6
f 18/37/1 19/39/1 20/67/1
f 20/40/2 23/42/2 24/68/2
f 24/43/3 21/45/3 22/69/3
f 22/46/4 17/48/4 18/70/4
f 23/49/5 17/51/5 21/71/5
f 20/52/6 22/54/6 18/72/6
o Cube.003_Cube.004
v 0.750000 -0.035304 0.346907
v 0.750000 -0.104696 0.346907
v 0.750000 -0.035304 -0.353093
v 0.750000 -0.104696 -0.353093
v 0.850000 -0.035304 0.346907
v 0.850000 -0.104696 0.346907
v 0.850000 -0.035304 -0.353093
v 0.850000 -0.104696 -0.353093
v 0.750000 -0.035304 0.276907
v 0.750000 -0.104696 0.276907
v 0.850000 -0.035304 0.276907
v 0.850000 -0.104696 0.276907
v 0.850000 -0.604696 0.276907
v 0.850000 -0.604696 0.346907
v 0.750000 -0.604696 0.346907
v 0.750000 -0.604696 0.276907
v 0.750000 -0.104696 -0.290093
v 0.850000 -0.035304 -0.290093
v 0.750000 -0.035304 -0.290093
v 0.850000 -0.104696 -0.290093
v 0.750000 -0.604696 -0.290093
v 0.750000 -0.604696 -0.353093
v 0.850000 -0.604696 -0.353093
v 0.850000 -0.604696 -0.290093
vt 0.625000 0.227500
vt 0.375000 0.227500
vt 0.375000 0.250000
vt 0.625000 0.250000
vt 0.375000 0.500000
vt 0.625000 0.725000
vt 0.375000 0.725000
vt 0.375000 0.750000
vt 0.625000 0.750000
vt 0.375000 1.000000
vt 0.125000 0.725000
vt 0.125000 0.750000
vt 0.625000 0.750000
vt 0.875000 0.522500
vt 0.625000 0.522500
vt 0.375000 0.522500
vt 0.125000 0.522500
vt 0.625000 0.000000
vt 0.375000 0.000000
vt 0.375000 0.025000
vt 0.875000 0.725000
vt 0.625000 0.725000
vt 0.625000 0.025000
vt 0.625000 0.025000
vt 0.625000 1.000000
vt 0.625000 1.000000
vt 0.875000 0.725000
vt 0.625000 0.500000
vt 0.125000 0.500000
vt 0.625000 0.250000
vt 0.875000 0.500000
vt 0.625000 0.500000
vt 0.625000 0.522500
vt 0.875000 0.522500
vt 0.875000 0.750000
vt 0.625000 0.000000
vt 0.625000 0.227500
vn -1.0000 0.0000 0.0000
vn 0.0000 0.0000 -1.0000
vn 1.0000 0.0000 0.0000
vn 0.0000 0.0000 1.0000
vn 0.0000 1.0000 0.0000
vn 0.0000 -1.0000 0.0000
s off
f 41/73/7 43/74/7 27/75/7
f 28/76/8 27/75/8 31/77/8
f 36/78/9 35/79/9 29/80/9
f 30/81/10 29/80/10 25/82/10
f 35/79/11 33/83/11 25/84/11
f 36/78/9 30/81/9 38/85/9
f 41/86/12 44/87/12 36/78/12
f 42/88/11 43/89/11 33/83/11
f 44/87/9 42/88/9 35/79/9
f 26/90/7 25/91/7 33/92/7
f 40/93/12 37/94/12 38/85/12
f 26/90/7 34/95/7 40/96/7
f 30/81/10 26/97/10 39/98/10
f 34/99/8 36/78/8 37/94/8
f 32/100/9 31/77/9 42/88/9
f 31/77/11 27/101/11 43/89/11
f 41/73/7 28/76/7 46/102/7
f 34/95/7 33/92/7 43/74/7
f 46/103/12 47/104/12 48/105/12
f 32/100/9 44/87/9 48/105/9
f 28/76/8 32/100/8 47/104/8
f 44/87/10 41/86/10 45/106/10
f 41/73/7 27/75/7 28/76/7
f 28/76/8 31/77/8 32/100/8
f 36/78/9 29/80/9 30/81/9
f 30/81/10 25/82/10 26/97/10
f 35/79/11 25/84/11 29/80/11
f 36/78/9 38/85/9 37/94/9
f 41/86/12 36/78/12 34/99/12
f 42/88/11 33/83/11 35/79/11
f 44/87/9 35/79/9 36/78/9
f 26/90/7 33/92/7 34/95/7
f 40/93/12 38/85/12 39/107/12
f 26/90/7 40/96/7 39/108/7
f 30/81/10 39/98/10 38/85/10
f 34/99/8 37/94/8 40/93/8
f 32/100/9 42/88/9 44/87/9
f 31/77/11 43/89/11 42/88/11
f 41/73/7 46/102/7 45/109/7
f 34/95/7 43/74/7 41/73/7
f 46/103/12 48/105/12 45/106/12
f 32/100/9 48/105/9 47/104/9
f 28/76/8 47/104/8 46/102/8
f 44/87/10 45/106/10 48/105/10
o Cube.004_Cube.005
v -0.850000 -0.035304 0.346907
v -0.850000 -0.104696 0.346907
v -0.850000 -0.035304 -0.353093
v -0.850000 -0.104696 -0.353093
v -0.750000 -0.035304 0.346907
v -0.750000 -0.104696 0.346907
v -0.750000 -0.035304 -0.353093
v -0.750000 -0.104696 -0.353093
v -0.850000 -0.035304 0.276907
v -0.850000 -0.104696 0.276907
v -0.750000 -0.035304 0.276907
v -0.750000 -0.104696 0.276907
v -0.750000 -0.604696 0.276907
v -0.750000 -0.604696 0.346907
v -0.850000 -0.604696 0.346907
v -0.850000 -0.604696 0.276907
v -0.850000 -0.104696 -0.290093
v -0.750000 -0.035304 -0.290093
v -0.850000 -0.035304 -0.290093
v -0.750000 -0.104696 -0.290093
v -0.850000 -0.604696 -0.290093
v -0.850000 -0.604696 -0.353093
v -0.750000 -0.604696 -0.353093
v -0.750000 -0.604696 -0.290093
vt 0.625000 0.227500
vt 0.375000 0.227500
vt 0.375000 0.250000
vt 0.625000 0.250000
vt 0.375000 0.500000
vt 0.625000 0.725000
vt 0.375000 0.725000
vt 0.375000 0.750000
vt 0.625000 0.750000
vt 0.375000 1.000000
vt 0.125000 0.725000
vt 0.125000 0.750000
vt 0.625000 0.750000
vt 0.875000 0.522500
vt 0.625000 0.522500
vt 0.375000 0.522500
vt 0.125000 0.522500
vt 0.625000 0.000000
vt 0.375000 0.000000
vt 0.375000 0.025000
vt 0.875000 0.725000
vt 0.625000 0.725000
vt 0.625000 0.025000
vt 0.625000 0.025000
vt 0.625000 1.000000
vt 0.625000 1.000000
vt 0.875000 0.725000
vt 0.625000 0.500000
vt 0.125000 0.500000
vt 0.625000 0.250000
vt 0.875000 0.500000
vt 0.625000 0.500000
vt 0.625000 0.522500
vt 0.875000 0.522500
vt 0.875000 0.750000
vt 0.625000 0.000000
vt 0.625000 0.227500
vn -1.0000 0.0000 0.0000
vn 0.0000 0.0000 -1.0000
vn 1.0000 0.0000 0.0000
vn 0.0000 0.0000 1.0000
vn 0.0000 1.0000 0.0000
vn 0.0000 -1.0000 0.0000
s off
f 65/110/13 67/111/13 51/112/13
f 52/113/14 51/112/14 55/114/14
f 60/115/15 59/116/15 53/117/15
f 54/118/16 53/117/16 49/119/16
f 59/116/17 57/120/17 49/121/17
f 60/115/15 54/118/15 62/122/15
f 65/123/18 68/124/18 60/115/18
f 66/125/17 67/126/17 57/120/17
f 68/124/15 66/125/15 59/116/15
f 50/127/13 49/128/13 57/129/13
f 64/130/18 61/131/18 62/122/18
f 50/127/13 58/132/13 64/133/13
f 54/118/16 50/134/16 63/135/16
f 58/136/14 60/115/14 61/131/14
f 56/137/15 55/114/15 66/125/15
f 55/114/17 51/138/17 67/126/17
f 65/110/13 52/113/13 70/139/13
f 58/132/13 57/129/13 67/111/13
f 70/140/18 71/141/18 72/142/18
f 56/137/15 68/124/15 72/142/15
f 52/113/14 56/137/14 71/141/14
f 68/124/16 65/123/16 69/143/16
f 65/110/13 51/112/13 52/113/13
f 52/113/14 55/114/14 56/137/14
f 60/115/15 53/117/15 54/118/15
f 54/118/16 49/119/16 50/134/16
f 59/116/17 49/121/17 53/117/17
f 60/115/15 62/122/15 61/131/15
f 65/123/18 60/115/18 58/136/18
f 66/125/17 57/120/17 59/116/17
f 68/124/15 59/116/15 60/115/15
f 50/127/13 57/129/13 58/132/13
f 64/130/18 62/122/18 63/144/18
f 50/127/13 64/133/13 63/145/13
f 54/118/16 63/135/16 62/122/16
f 58/136/14 61/131/14 64/130/14
f 56/137/15 66/125/15 68/124/15
f 55/114/17 67/126/17 66/125/17
f 65/110/13 70/139/13 69/146/13
f 58/132/13 67/111/13 65/110/13
f 70/140/18 72/142/18 69/143/18
f 56/137/15 72/142/15 71/141/15
f 52/113/14 71/141/14 70/139/14
f 68/124/16 69/143/16 72/142/16
