# Blender v2.82 (sub 7) OBJ File: 'square.blend'
# www.blender.org
o Circle
v 0.000001 0.000000 -9.999997
v -1.950902 0.000000 -9.807850
v -3.826833 0.000000 -9.238792
v -5.555701 0.000000 -8.314693
v -7.071066 0.000000 -7.071065
v -8.314695 0.000000 -5.555699
v -9.238794 0.000000 -3.826832
v -9.807852 0.000000 -1.950901
v -9.999999 0.000000 0.000002
v -9.807852 0.000000 1.950905
v -9.238794 0.000000 3.826835
v -8.314695 0.000000 5.555705
v -7.071066 0.000000 7.071070
v -5.555701 0.000000 8.314699
v -3.826832 0.000000 9.238799
v -1.950900 0.000000 9.807856
v 0.000004 0.000000 10.000002
v 1.950908 0.000000 9.807855
v 3.826840 0.000000 9.238796
v 5.555708 0.000000 8.314696
v 7.071074 0.000000 7.071066
v 8.314701 0.000000 5.555699
v 9.238800 0.000000 3.826830
v 9.807856 0.000000 1.950897
v 10.000001 0.000000 -0.000007
v 9.807852 0.000000 -1.950911
v 9.238792 0.000000 -3.826842
v 8.314691 0.000000 -5.555710
v 7.071060 0.000000 -7.071074
v 5.555692 0.000000 -8.314701
v 3.826822 0.000000 -9.238798
v 1.950889 0.000000 -9.807853
v -1.950902 -0.100000 -9.807850
v -3.826833 -0.100000 -9.238792
v -5.555701 -0.100000 -8.314693
v -7.071066 -0.100000 -7.071065
v -8.314695 -0.100000 -5.555699
v -9.238794 -0.100000 -3.826832
v -9.807852 -0.100000 -1.950901
v -9.807852 -0.100000 1.950905
v -9.238794 -0.100000 3.826835
v -8.314695 -0.100000 5.555705
v -7.071066 -0.100000 7.071070
v -5.555701 -0.100000 8.314699
v -3.826832 -0.100000 9.238799
v -1.950900 -0.100000 9.807856
v 1.950908 -0.100000 9.807855
v 3.826840 -0.100000 9.238796
v 5.555708 -0.100000 8.314696
v 7.071074 -0.100000 7.071066
v 8.314701 -0.100000 5.555699
v 9.238800 -0.100000 3.826830
v 9.807856 -0.100000 1.950897
v 9.807852 -0.100000 -1.950911
v 9.238792 -0.100000 -3.826842
v 8.314691 -0.100000 -5.555710
v 7.071060 -0.100000 -7.071074
v 5.555692 -0.100000 -8.314701
v 3.826822 -0.100000 -9.238798
v 1.950889 -0.100000 -9.807853
v -1.950904 0.000000 -13.807850
v -0.000000 0.000000 -13.999997
v 1.950888 0.000000 -13.807853
v -1.950904 -0.100000 -13.807850
v -0.000000 -0.100000 -13.999997
v 1.950888 -0.100000 -13.807853
v -13.999999 0.000000 0.000002
v -13.807852 0.000000 -1.950901
v -13.807852 0.000000 1.950905
v -13.999999 -0.100000 0.000002
v -13.807852 -0.100000 -1.950901
v -13.807852 -0.100000 1.950905
v 0.000005 0.000000 14.000002
v -1.950899 0.000000 13.807856
v 1.950909 0.000000 13.807855
v 0.000005 -0.100000 14.000002
v -1.950899 -0.100000 13.807856
v 1.950909 -0.100000 13.807855
v 14.000001 0.000000 -0.000011
v 13.807856 0.000000 1.950893
v 13.807852 0.000000 -1.950915
v 14.000001 -0.100000 -0.000011
v 13.807856 -0.100000 1.950893
v 13.807852 -0.100000 -1.950915
vt 19.533199 19.533175
vt 19.533176 -18.533211
vt -18.533197 -18.533205
vt 0.150212 -1.999842
vt 0.025220 2.999842
vt 0.150212 2.999842
vt 0.089277 -2.833259
vt -0.080763 0.499918
vt -0.080754 -2.833259
vt -0.080746 -6.166711
vt 0.089284 -9.499816
vt 0.089280 -6.166711
vt -0.080758 10.499815
vt 0.089275 7.166594
vt 0.089275 10.499815
vt 0.089277 0.499918
vt -0.080763 3.833233
vt -0.080754 7.166593
vt 0.089282 3.833389
vt 0.089273 3.833233
vt -0.080761 7.166531
vt 23.067575 30.493929
vt 15.454288 22.880657
vt -0.080753 3.833387
vt 0.089286 0.500122
vt 0.089275 7.166531
vt -0.080756 10.499815
vt 0.089280 -9.499814
vt -0.080753 -6.166704
vt -0.080746 -9.499815
vt -0.080756 0.500122
vt 0.089281 -2.833284
vt 0.089277 -6.166706
vt -0.080759 -2.833520
vt -0.080753 -2.833284
vt 0.089286 -6.166518
vt 0.089278 -2.833520
vt -0.080759 0.499815
vt -0.080753 -6.166518
vt 0.089279 -9.499816
vt 0.089280 0.499816
vt -0.080761 3.833149
vt 0.212709 -4.499683
vt -0.037276 5.499682
vt 0.212708 5.499682
vt 0.089278 3.833149
vt -0.080759 7.166482
vt -18.533186 19.533197
vt -22.067553 30.493999
vt -14.454248 22.880695
vt 0.089278 7.166482
vt -0.080756 10.499815
vt -0.080751 10.499815
vt 0.089284 7.166555
vt 0.089284 10.499814
vt 23.067545 -29.493998
vt 15.454248 -21.880693
vt -0.080758 7.166555
vt 0.089277 3.833156
vt -0.100083 2.999840
vt 0.024903 -1.999842
vt -0.100089 -1.999842
vt -0.080763 3.833157
vt 0.089275 0.499775
vt 0.089280 -9.499815
vt -0.080752 -6.166529
vt -0.080756 -9.499814
vt -0.080761 0.499775
vt 0.089275 -2.833514
vt 0.089283 -6.166531
vt -0.080755 -2.833514
vt 0.114791 0.499913
vt -0.089255 4.499872
vt -0.089253 0.499913
vt 0.114793 -3.499872
vt -0.089244 -3.499872
vt -29.493946 -22.067568
vt -21.880665 -14.454296
vt 0.025225 2.999842
vt 0.150212 -1.999842
vt 0.025220 -1.999842
vt -22.067598 -29.493923
vt -14.454323 -21.880655
vt -0.089252 4.499872
vt 0.114787 0.499949
vt 0.114790 4.499872
vt -0.089250 0.499949
vt 0.114789 -3.499872
vt -29.493958 23.067596
vt -21.880665 15.454292
vt 4.499874 -0.087482
vt -3.499874 0.112512
vt -3.499874 -0.087474
vt 0.602019 -3.987103
vt 0.397979 0.012774
vt 0.397979 -3.987103
vt 0.602018 0.012774
vt 0.397978 4.012640
vt -0.187479 -7.499747
vt 0.212509 8.499747
vt -0.187463 8.499747
vt -0.162574 5.499683
vt 0.087400 -4.499683
vt -0.162585 -4.499683
vt 30.493958 23.067533
vt 22.880676 15.454260
vt -0.089251 4.499872
vt 0.114788 0.499995
vt 0.114788 4.499872
vt -0.089251 0.499995
vt 0.114788 -3.499871
vt -1.950948 2.877909
vt 2.926499 2.999846
vt 2.926499 2.877910
vt 30.493958 -22.067593
vt 22.880665 -14.454288
vt -24.368065 -9.800699
vt -25.899811 -4.751197
vt -26.417007 0.499986
vt -25.899792 5.751276
vt -24.368074 10.800674
vt -9.800703 25.368057
vt -4.751243 26.899799
vt 0.499992 27.416996
vt 5.751274 26.899792
vt 10.800694 25.368057
vt 25.368069 10.800676
vt 26.899797 5.751215
vt 27.417000 0.499995
vt 26.899786 -4.751264
vt 25.368061 -9.800705
vt 0.499970 -26.417011
vt 10.800674 -24.368074
vt 5.751199 -25.899809
vt -4.751260 -25.899803
vt -9.800716 -24.368069
vt 0.025225 -1.999842
vt -0.080741 -9.499814
vt 27.146481 27.146446
vt 0.089283 10.499815
vt -0.080765 -9.499813
vt -0.037265 -4.499683
vt -26.146481 27.146515
vt 0.089282 10.499815
vt 27.146469 -26.146515
vt 0.024904 2.999842
vt 0.114793 4.499871
vt -26.146477 -26.146475
vt 0.150212 2.999842
vt -0.089252 -3.499872
vt 4.499874 0.112512
vt 0.602022 4.012640
vt 0.212510 -7.499747
vt 0.087400 5.499683
vt -0.089246 -3.499872
vt -1.950948 2.999841
vn 0.0000 1.0000 0.0000
vn 1.0000 0.0000 -0.0000
vn 0.7730 0.0000 -0.6344
vn -0.2903 0.0000 0.9569
vn -0.2903 0.0000 -0.9569
vn 0.6344 0.0000 -0.7730
vn -0.4714 0.0000 -0.8819
vn 0.4714 0.0000 -0.8819
vn -0.6344 0.0000 -0.7730
vn 0.2903 0.0000 -0.9569
vn 0.2903 0.0000 0.9569
vn -0.7730 0.0000 -0.6344
vn 0.4714 0.0000 0.8819
vn -0.8819 0.0000 -0.4714
vn 0.6344 0.0000 0.7730
vn -0.9569 0.0000 -0.2903
vn 0.7730 0.0000 0.6344
vn 0.0000 0.0000 -1.0000
vn 0.8819 0.0000 0.4714
vn 0.9569 0.0000 0.2903
vn -0.9569 0.0000 0.2903
vn -0.8819 0.0000 0.4714
vn -0.7730 0.0000 0.6344
vn 0.9569 0.0000 -0.2903
vn -0.6344 0.0000 0.7730
vn 0.8819 0.0000 -0.4714
vn -0.4714 0.0000 0.8819
vn -0.0980 0.0000 -0.9952
vn 0.0980 0.0000 -0.9952
vn -1.0000 0.0000 0.0000
vn -0.9952 0.0000 -0.0980
vn -0.9952 0.0000 0.0980
vn 0.0000 0.0000 1.0000
vn -0.0980 0.0000 0.9952
vn 0.0980 0.0000 0.9952
vn 0.9952 0.0000 0.0980
vn 0.9952 0.0000 -0.0980
s off
f 17/1/1 25/2/1 1/3/1
f 66/4/2 32/5/2 60/6/2
f 56/7/3 29/8/3 28/9/3
f 45/10/4 16/11/4 15/12/4
f 33/13/5 3/14/5 2/15/5
f 57/16/6 30/17/6 29/8/6
f 34/18/7 4/19/7 3/14/7
f 58/20/8 31/21/8 30/17/8
f 74/22/1 17/1/1 16/23/1
f 35/24/9 5/25/9 4/19/9
f 59/26/10 32/27/10 31/21/10
f 47/28/11 19/29/11 18/30/11
f 36/31/12 6/32/12 5/25/12
f 48/33/13 20/34/13 19/29/13
f 37/35/14 7/36/14 6/32/14
f 49/37/15 21/38/15 20/34/15
f 38/39/16 8/40/16 7/36/16
f 50/41/17 22/42/17 21/38/17
f 71/43/18 8/44/18 39/45/18
f 51/46/19 23/47/19 22/42/19
f 9/48/1 69/49/1 10/50/1
f 52/51/20 24/52/20 23/47/20
f 40/53/21 11/54/21 10/55/21
f 25/2/1 81/56/1 26/57/1
f 41/58/22 12/59/22 11/54/22
f 81/60/18 54/61/18 26/62/18
f 42/63/23 13/64/23 12/59/23
f 54/65/24 27/66/24 26/67/24
f 43/68/25 14/69/25 13/64/25
f 55/70/26 28/9/26 27/66/26
f 44/71/27 15/12/27 14/69/27
f 65/72/28 61/73/28 62/74/28
f 66/75/29 62/74/29 63/76/29
f 1/3/1 61/77/1 2/78/1
f 61/79/30 33/80/30 2/81/30
f 63/82/1 1/3/1 32/83/1
f 71/84/31 67/85/31 68/86/31
f 70/87/32 69/88/32 67/85/32
f 68/89/1 9/48/1 8/90/1
f 69/91/33 40/92/33 10/93/33
f 77/94/34 73/95/34 74/96/34
f 76/97/35 75/98/35 73/95/35
f 77/99/30 16/100/30 46/101/30
f 75/102/2 47/103/2 18/104/2
f 17/1/1 75/105/1 18/106/1
f 83/107/36 79/108/36 80/109/36
f 82/110/37 81/111/37 79/108/37
f 83/112/33 24/113/33 53/114/33
f 80/115/1 25/2/1 24/116/1
f 1/3/1 2/78/1 3/117/1
f 3/117/1 4/118/1 5/119/1
f 5/119/1 6/120/1 7/121/1
f 7/121/1 8/90/1 9/48/1
f 9/48/1 10/50/1 11/122/1
f 11/122/1 12/123/1 13/124/1
f 13/124/1 14/125/1 15/126/1
f 15/126/1 16/23/1 13/124/1
f 16/23/1 17/1/1 13/124/1
f 17/1/1 18/106/1 19/127/1
f 19/127/1 20/128/1 21/129/1
f 21/129/1 22/130/1 25/2/1
f 22/130/1 23/131/1 25/2/1
f 23/131/1 24/116/1 25/2/1
f 25/2/1 26/57/1 29/132/1
f 26/57/1 27/133/1 29/132/1
f 27/133/1 28/134/1 29/132/1
f 29/132/1 30/135/1 31/136/1
f 31/136/1 32/83/1 29/132/1
f 32/83/1 1/3/1 29/132/1
f 1/3/1 3/117/1 5/119/1
f 5/119/1 7/121/1 9/48/1
f 9/48/1 11/122/1 17/1/1
f 11/122/1 13/124/1 17/1/1
f 17/1/1 19/127/1 21/129/1
f 1/3/1 5/119/1 17/1/1
f 5/119/1 9/48/1 17/1/1
f 17/1/1 21/129/1 25/2/1
f 25/2/1 29/132/1 1/3/1
f 66/4/2 63/137/2 32/5/2
f 56/7/3 57/16/3 29/8/3
f 45/10/4 46/138/4 16/11/4
f 33/13/5 34/18/5 3/14/5
f 57/16/6 58/20/6 30/17/6
f 34/18/7 35/24/7 4/19/7
f 58/20/8 59/26/8 31/21/8
f 74/22/1 73/139/1 17/1/1
f 35/24/9 36/31/9 5/25/9
f 59/26/10 60/140/10 32/27/10
f 47/28/11 48/33/11 19/29/11
f 36/31/12 37/35/12 6/32/12
f 48/33/13 49/37/13 20/34/13
f 37/35/14 38/39/14 7/36/14
f 49/37/15 50/41/15 21/38/15
f 38/39/16 39/141/16 8/40/16
f 50/41/17 51/46/17 22/42/17
f 71/43/18 68/142/18 8/44/18
f 51/46/19 52/51/19 23/47/19
f 9/48/1 67/143/1 69/49/1
f 52/51/20 53/144/20 24/52/20
f 40/53/21 41/58/21 11/54/21
f 25/2/1 79/145/1 81/56/1
f 41/58/22 42/63/22 12/59/22
f 81/60/18 84/146/18 54/61/18
f 42/63/23 43/68/23 13/64/23
f 54/65/24 55/70/24 27/66/24
f 43/68/25 44/71/25 14/69/25
f 55/70/26 56/7/26 28/9/26
f 44/71/27 45/10/27 15/12/27
f 65/72/28 64/147/28 61/73/28
f 66/75/29 65/72/29 62/74/29
f 1/3/1 62/148/1 61/77/1
f 61/79/30 64/149/30 33/80/30
f 63/82/1 62/148/1 1/3/1
f 71/84/31 70/87/31 67/85/31
f 70/87/32 72/150/32 69/88/32
f 68/89/1 67/143/1 9/48/1
f 69/91/33 72/151/33 40/92/33
f 77/94/34 76/97/34 73/95/34
f 76/97/35 78/152/35 75/98/35
f 77/99/30 74/153/30 16/100/30
f 75/102/2 78/154/2 47/103/2
f 17/1/1 73/139/1 75/105/1
f 83/107/36 82/110/36 79/108/36
f 82/110/37 84/155/37 81/111/37
f 83/112/33 80/156/33 24/113/33
f 80/115/1 79/145/1 25/2/1
