# Blender v3.0.1 OBJ File: ''
# www.blender.org
v -1.000000 0.000000 1.000000
v 1.000000 0.000000 1.000000
v -1.000000 0.000000 -1.000000
v 1.000000 0.000000 -1.000000
vt 1.000000 0.000000
vt 0.000000 1.000000
vt 0.000000 0.000000
vt 1.000000 1.000000
vn 0.0000 1.0000 0.0000
s 1
f 2/1/1 3/2/1 1/3/1
f 2/1/1 4/4/1 3/2/1
v 2.643435 0.678511 1.000000
v 0.819035 -0.140981 1.000000
v 2.643435 0.678511 -1.000000
v 0.819035 -0.140981 -1.000000
vt 1.000000 0.000000
vt 0.000000 1.000000
vt 0.000000 0.000000
vt 1.000000 1.000000
vn 0.4097 -0.9122 0.0000
s 1
f 6/5/2 7/6/2 5/7/2
f 6/5/2 8/8/2 7/6/2
v 2.921097 0.537530 1.000000
v 4.921097 0.537530 1.000000
v 2.921097 0.537530 -1.000000
v 4.921097 0.537530 -1.000000
vt 1.000000 0.000000
vt 0.000000 1.000000
vt 0.000000 0.000000
vt 1.000000 1.000000
vn 0.0000 1.0000 0.0000
s 1
f 10/9/3 11/10/3 9/11/3
f 10/9/3 12/12/3 11/10/3
v -1.000000 2.000000 1.000000
v -1.000000 0.000000 1.000000
v -1.000000 2.000000 -1.000000
v -1.000000 0.000000 -1.000000
vt 1.000000 0.000000
vt 0.000000 1.000000
vt 0.000000 0.000000
vt 1.000000 1.000000
vn 1.0000 0.0000 0.0000
s 1
f 14/13/4 15/14/4 13/15/4
f 14/13/4 16/16/4 15/14/4
v -1.000000 0.000000 -3.000000
v 1.000000 0.000000 -3.000000
v -1.000000 -0.000000 -1.000000
v 1.000000 -0.000000 -1.000000
vt 1.000000 0.000000
vt 0.000000 1.000000
vt 0.000000 0.000000
vt 1.000000 1.000000
vn 0.0000 -1.0000 0.0000
s 1
f 18/17/5 19/18/5 17/19/5
f 18/17/5 20/20/5 19/18/5
v -1.000000 -0.165457 0.801369
v 1.000000 -0.165457 0.801369
v -1.000000 0.825448 2.538640
v 1.000000 0.825448 2.538640
vt 1.000000 0.000000
vt 0.000000 1.000000
vt 0.000000 0.000000
vt 1.000000 1.000000
vn 0.0000 -0.8686 0.4954
s 1
f 22/21/6 23/22/6 21/23/6
f 22/21/6 24/24/6 23/22/6
