# Blender v3.0.1 OBJ File: ''
# www.blender.org
v -1.000000 0.000000 1.000000
v 1.000000 0.000000 1.000000
v -1.000000 0.000000 -1.000000
v 1.000000 0.000000 -1.000000
vt 1.000000 0.000000
vt 0.000000 1.000000
vt 0.000000 0.000000
vt 1.000000 1.000000
vn 0.0000 1.0000 0.0000
s 1
f 2/1/1 3/2/1 1/3/1
f 2/1/1 4/4/1 3/2/1
v 2.866745 0.298591 1.000000
v 0.900166 -0.065502 1.000000
v 2.866745 0.298591 -1.000000
v 0.900166 -0.065502 -1.000000
vt 1.000000 0.000000
vt 0.000000 1.000000
vt 0.000000 0.000000
vt 1.000000 1.000000
vn 0.1820 -0.9833 0.0000
s 1
f 6/5/2 7/6/2 5/7/2
f 6/5/2 8/8/2 7/6/2
v 2.980736 0.233089 1.000000
v 4.980737 0.233089 1.000000
v 2.980736 0.233089 -1.000000
v 4.980737 0.233089 -1.000000
vt 1.000000 0.000000
vt 0.000000 1.000000
vt 0.000000 0.000000
vt 1.000000 1.000000
vn 0.0000 1.0000 0.0000
s 1
f 10/9/3 11/10/3 9/11/3
f 10/9/3 12/12/3 11/10/3
v -1.059867 1.976040 1.000000
v -0.986714 -0.022621 1.000000
v -1.059867 1.976040 -1.000000
v -0.986714 -0.022621 -1.000000
vt 1.000000 0.000000
vt 0.000000 1.000000
vt 0.000000 0.000000
vt 1.000000 1.000000
vn 0.9993 0.0366 0.0000
s 1
f 14/13/4 15/14/4 13/15/4
f 14/13/4 16/16/4 15/14/4
v -1.000000 0.000000 -3.000000
v 1.000000 0.000000 -3.000000
v -1.000000 -0.000000 -1.000000
v 1.000000 -0.000000 -1.000000
vt 1.000000 0.000000
vt 0.000000 1.000000
vt 0.000000 0.000000
vt 1.000000 1.000000
vn 0.0000 -1.0000 0.0000
s 1
f 18/17/5 19/18/5 17/19/5
f 18/17/5 20/20/5 19/18/5
v -1.000000 0.000000 1.000000
v 1.000000 0.000000 1.000000
v -1.000000 -0.000000 3.000000
v 1.000000 -0.000000 3.000000
vt 1.000000 0.000000
vt 0.000000 1.000000
vt 0.000000 0.000000
vt 1.000000 1.000000
vn 0.0000 -1.0000 0.0000
s 1
f 22/21/6 23/22/6 21/23/6
f 22/21/6 24/24/6 23/22/6
