# Blender v3.0.1 OBJ File: ''
# www.blender.org
v -1.000000 0.000000 1.000000
v 1.000000 0.000000 1.000000
v -1.000000 0.000000 -1.000000
v 1.000000 0.000000 -1.000000
vt 1.000000 0.000000
vt 0.000000 1.000000
vt 0.000000 0.000000
vt 1.000000 1.000000
vn 0.0000 1.0000 0.0000
s 1
f 2/1/1 3/2/1 1/3/1
f 2/1/1 4/4/1 3/2/1
v 2.594696 0.748813 1.000000
v 0.809617 -0.153126 1.000000
v 2.594696 0.748813 -1.000000
v 0.809617 -0.153126 -1.000000
vt 1.000000 0.000000
vt 0.000000 1.000000
vt 0.000000 0.000000
vt 1.000000 1.000000
vn 0.4509 -0.8925 0.0000
s 1
f 6/5/2 7/6/2 5/7/2
f 6/5/2 8/8/2 7/6/2
v 2.905358 0.595687 1.000000
v 4.905358 0.595687 1.000000
v 2.905358 0.595687 -1.000000
v 4.905358 0.595687 -1.000000
vt 1.000000 0.000000
vt 0.000000 1.000000
vt 0.000000 0.000000
vt 1.000000 1.000000
vn 0.0000 1.0000 0.0000
s 1
f 10/9/3 11/10/3 9/11/3
f 10/9/3 12/12/3 11/10/3
v -1.000000 2.000000 1.000000
v -1.000000 0.000000 1.000000
v -1.000000 2.000000 -1.000000
v -1.000000 0.000000 -1.000000
vt 1.000000 0.000000
vt 0.000000 1.000000
vt 0.000000 0.000000
vt 1.000000 1.000000
vn 1.0000 0.0000 0.0000
s 1
f 14/13/4 15/14/4 13/15/4
f 14/13/4 16/16/4 15/14/4
v -1.000000 0.000000 -3.000000
v 1.000000 0.000000 -3.000000
v -1.000000 -0.000000 -1.000000
v 1.000000 -0.000000 -1.000000
vt 1.000000 0.000000
vt 0.000000 1.000000
vt 0.000000 0.000000
vt 1.000000 1.000000
vn 0.0000 -1.0000 0.0000
s 1
f 18/17/5 19/18/5 17/19/5
f 18/17/5 20/20/5 19/18/5
v -1.000000 -0.197929 0.789495
v 1.000000 -0.197929 0.789495
v -1.000000 1.082771 2.325662
v 1.000000 1.082771 2.325662
vt 1.000000 0.000000
vt 0.000000 1.000000
vt 0.000000 0.000000
vt 1.000000 1.000000
vn 0.0000 -0.7681 0.6403
s 1
f 22/21/6 23/22/6 21/23/6
f 22/21/6 24/24/6 23/22/6
