# Blender v2.82 (sub 7) OBJ File: ''
# www.blender.org
v 0.000000 0.000000 -1.000000
v -0.500000 0.000000 -0.866025
v -0.866025 0.000000 -0.500000
v -1.000000 0.000000 0.000000
v -0.866025 0.000000 0.500000
v -0.500000 0.000000 0.866025
v -0.000000 0.000000 1.000000
v 0.500000 0.000000 0.866026
v 0.866025 0.000000 0.500000
v 1.000000 0.000000 0.000000
v 0.866026 0.000000 -0.499999
v 0.500001 0.000000 -0.866025
v 0.000000 0.000000 -1.000000
v -0.500000 0.000000 -0.866025
v -0.866025 0.000000 -0.500000
v -1.000000 0.000000 0.000000
v -0.866025 0.000000 0.500000
v -0.500000 0.000000 0.866025
v -0.000000 0.000000 1.000000
v 0.500000 0.000000 0.866026
v 0.866025 0.000000 0.500000
v 1.000000 0.000000 0.000000
v 0.866026 0.000000 -0.499999
v 0.500001 0.000000 -0.866025
v 0.000000 0.000000 -1.000000
v -0.500000 0.000000 -0.866025
v -0.866025 0.000000 -0.500000
v -1.000000 0.000000 0.000000
v -0.866025 0.000000 0.500000
v -0.500000 0.000000 0.866025
v -0.000000 0.000000 1.000000
v 0.500000 0.000000 0.866026
v 0.866025 0.000000 0.500000
v 1.000000 0.000000 0.000000
v 0.866026 0.000000 -0.499999
v 0.500001 0.000000 -0.866025
v 0.000000 5.000000 -1.000000
v -0.500000 5.000000 -0.866025
v -0.866025 5.000000 -0.500000
v -1.000000 5.000000 0.000000
v -0.866025 5.000000 0.500000
v -0.500000 5.000000 0.866025
v -0.000000 5.000000 1.000000
v 0.500000 5.000000 0.866026
v 0.866025 5.000000 0.500000
v 1.000000 5.000000 0.000000
v 0.866026 5.000000 -0.499999
v 0.500001 5.000000 -0.866025
v 0.000000 5.000000 -1.000000
v -0.500000 5.000000 -0.866025
v -0.866025 5.000000 -0.500000
v -1.000000 5.000000 0.000000
v -0.866025 5.000000 0.500000
v -0.500000 5.000000 0.866025
v -0.000000 5.000000 1.000000
v 0.500000 5.000000 0.866026
v 0.866025 5.000000 0.500000
v 1.000000 5.000000 0.000000
v 0.866026 5.000000 -0.499999
v 0.500001 5.000000 -0.866025
v 0.000000 5.500000 -1.129974
v -0.564987 5.500000 -0.978586
v -0.978586 5.500000 -0.564987
v -1.129974 5.500000 0.000000
v -0.978586 5.500000 0.564987
v -0.564987 5.500000 0.978586
v -0.000000 5.500000 1.129974
v 0.564987 5.500000 0.978586
v 0.978586 5.500000 0.564987
v 1.129974 5.500000 0.000001
v 0.978587 5.500000 -0.564987
v 0.564988 5.500000 -0.978586
v 0.000000 6.000000 -1.129974
v -0.564987 6.000000 -0.978586
v -0.978586 6.000000 -0.564987
v -1.129974 6.000000 0.000000
v -0.978586 6.000000 0.564987
v -0.564987 6.000000 0.978586
v -0.000000 6.000000 1.129974
v 0.564987 6.000000 0.978586
v 0.978586 6.000000 0.564987
v 1.129974 6.000000 0.000001
v 0.978587 6.000000 -0.564987
v 0.564988 6.000000 -0.978586
v 0.000000 6.000000 -1.129974
v -0.564987 6.000000 -0.978586
v -0.978586 6.000000 -0.564987
v -1.129974 6.000000 0.000000
v -0.978586 6.000000 0.564987
v -0.564987 6.000000 0.978586
v -0.000000 6.000000 1.129974
v 0.564987 6.000000 0.978586
v 0.978586 6.000000 0.564987
v 1.129974 6.000000 0.000001
v 0.978587 6.000000 -0.564987
v 0.564988 6.000000 -0.978586
v 0.692821 2.500000 -0.400000
v 0.800000 2.500000 0.000000
v 0.400000 2.500000 0.692820
v -0.000000 2.500000 0.800000
v -0.692820 2.500000 0.400000
v -0.800000 2.500000 0.000000
v 0.400000 2.500000 -0.692820
v -0.400000 2.500000 -0.692820
v 0.000000 2.500000 -0.800000
v 0.692820 2.500000 0.400000
v -0.400000 2.500000 0.692820
v -0.692820 2.500000 -0.400000
v 0.978646 0.266921 0.000000
v -0.000000 0.266921 0.978646
v -0.978646 0.266921 0.000000
v 0.000000 0.266921 -0.978646
v 0.847533 0.266921 -0.489323
v 0.489323 0.266921 0.847533
v -0.847533 0.266921 0.489323
v 0.489324 0.266921 -0.847532
v -0.489323 0.266921 -0.847533
v 0.847532 0.266921 0.489323
v -0.489323 0.266921 0.847533
v -0.847533 0.266921 -0.489323
v -0.500000 0.000000 -0.866025
v 0.000000 0.000000 -1.000000
v -0.866025 0.000000 -0.500000
v -1.000000 0.000000 0.000000
v -0.866025 0.000000 0.500000
v -0.500000 0.000000 0.866025
v -0.000000 0.000000 1.000000
v 0.500000 0.000000 0.866026
v 0.866025 0.000000 0.500000
v 1.000000 0.000000 0.000000
v 0.866026 0.000000 -0.499999
v 0.500001 0.000000 -0.866025
v 0.978646 0.266921 0.000000
v -0.000000 0.266921 0.978646
v -0.978646 0.266921 0.000000
v 0.000000 0.266921 -0.978646
v 0.847533 0.266921 -0.489323
v 0.489323 0.266921 0.847533
v -0.847533 0.266921 0.489323
v 0.489324 0.266921 -0.847532
v -0.489323 0.266921 -0.847533
v 0.847532 0.266921 0.489323
v -0.489323 0.266921 0.847533
v -0.847533 0.266921 -0.489323
v -0.600000 -0.026692 -1.039231
v -0.000000 -0.026692 -1.200000
v -1.039231 -0.026692 -0.600000
v -1.200000 -0.026692 0.000000
v -1.039230 -0.026692 0.600000
v -0.600000 -0.026692 1.039230
v -0.000000 -0.026692 1.200000
v 0.600000 -0.026692 1.039231
v 1.039230 -0.026692 0.600000
v 1.200000 -0.026692 0.000001
v 1.039231 -0.026692 -0.599999
v 0.600001 -0.026692 -1.039230
v 1.174376 0.293613 0.000001
v -0.000000 0.293613 1.174376
v -1.174376 0.293613 0.000000
v -0.000000 0.293613 -1.174376
v 1.017040 0.293613 -0.587187
v 0.587188 0.293613 1.017039
v -1.017039 0.293613 0.587188
v 0.587188 0.293613 -1.017039
v -0.587188 0.293613 -1.017039
v 1.017039 0.293613 0.587188
v -0.587188 0.293613 1.017039
v -1.017039 0.293613 -0.587188
vt 0.000000 0.000000
vt 0.000000 0.000000
vt 0.000000 0.000000
vt 0.000000 0.000000
vt 0.000000 0.000000
vt 0.000000 0.000000
vt 0.000000 0.000000
vt 0.000000 0.000000
vt 0.000000 0.000000
vt 0.000000 0.000000
vt 0.000000 0.000000
vt 0.000000 0.000000
vt 0.000000 0.000000
vt 0.000000 0.000000
vt 0.000000 0.000000
vt 0.000000 0.000000
vt 0.000000 0.000000
vt 0.000000 0.000000
vt 0.000000 0.000000
vt 0.000000 0.000000
vt 0.000000 0.000000
vt 0.000000 0.000000
vt 0.000000 0.000000
vt 0.000000 0.000000
vt 0.000000 0.000000
vt 0.000000 0.000000
vt 0.000000 0.000000
vt 0.000000 0.000000
vt 0.000000 0.000000
vt 0.000000 0.000000
vt 0.000000 0.000000
vt 0.000000 0.000000
vt 0.000000 0.000000
vt 0.000000 0.000000
vt 0.000000 0.000000
vt 0.000000 0.000000
vt 0.000000 0.000000
vt 0.000000 0.000000
vt 0.000000 0.000000
vt 0.000000 0.000000
vt 0.000000 0.000000
vt 0.000000 0.000000
vt 0.000000 0.000000
vt 0.000000 0.000000
vt 0.000000 0.000000
vt 0.000000 0.000000
vt 0.000000 0.000000
vt 0.000000 0.000000
vt 0.000000 0.000000
vt 0.000000 0.000000
vt 0.000000 0.000000
vt 0.000000 0.000000
vt 0.000000 0.000000
vt 0.000000 0.000000
vt 0.000000 0.000000
vt 0.000000 0.000000
vt 0.000000 0.000000
vt 0.000000 0.000000
vt 0.000000 0.000000
vt 0.000000 0.000000
vt 0.000000 0.000000
vt 0.000000 0.000000
vt 0.000000 0.000000
vt 0.000000 0.000000
vt 0.000000 0.000000
vt 0.000000 0.000000
vt 0.000000 0.000000
vt 0.000000 0.000000
vt 0.000000 0.000000
vt 0.000000 0.000000
vt 0.000000 0.000000
vt 0.000000 0.000000
vt 0.000000 0.000000
vt 0.000000 0.000000
vt 0.000000 0.000000
vt 0.000000 0.000000
vt 0.000000 0.000000
vt 0.000000 0.000000
vt 0.000000 0.000000
vt 0.000000 0.000000
vt 0.000000 0.000000
vt 0.000000 0.000000
vt 0.000000 0.000000
vt 0.000000 0.000000
vt 0.000000 0.000000
vt 0.000000 0.000000
vt 0.000000 0.000000
vt 0.000000 0.000000
vt 0.000000 0.000000
vt 0.000000 0.000000
vt 0.000000 0.000000
vt 0.000000 0.000000
vt 0.000000 0.000000
vt 0.000000 0.000000
vt 0.000000 0.000000
vt 0.000000 0.000000
vt 0.000000 0.000000
vt 0.000000 0.000000
vt 0.000000 0.000000
vt 0.000000 0.000000
vt 0.000000 0.000000
vt 0.000000 0.000000
vt 0.000000 0.000000
vt 0.000000 0.000000
vt 0.000000 0.000000
vt 0.000000 0.000000
vt 0.000000 0.000000
vt 0.000000 0.000000
vt 0.000000 0.000000
vt 0.000000 0.000000
vt 0.000000 0.000000
vt 0.000000 0.000000
vt 0.000000 0.000000
vt 0.000000 0.000000
vt 0.000000 0.000000
vt 0.000000 0.000000
vt 0.000000 0.000000
vt 0.000000 0.000000
vt 0.000000 0.000000
vt 0.000000 0.000000
vt 0.000000 0.000000
vt 0.000000 0.000000
vt 0.000000 0.000000
vt 0.000000 0.000000
vt 0.000000 0.000000
vt 0.000000 0.000000
vt 0.000000 0.000000
vt 0.000000 0.000000
vt 0.000000 0.000000
vt 0.000000 0.000000
vt 0.000000 0.000000
vt 0.000000 0.000000
vt 0.000000 0.000000
vt 0.000000 0.000000
vt 0.000000 0.000000
vt 0.000000 0.000000
vt 0.000000 0.000000
vt 0.000000 0.000000
vt 0.000000 0.000000
vt 0.000000 0.000000
vt 0.000000 0.000000
vt 0.000000 0.000000
vt 0.000000 0.000000
vt 0.000000 0.000000
vt 0.000000 0.000000
vt 0.000000 0.000000
vt 0.000000 0.000000
vt 0.000000 0.000000
vt 0.000000 0.000000
vt 0.000000 0.000000
vt 0.000000 0.000000
vt 0.000000 0.000000
vt 0.000000 0.000000
vt 0.000000 0.000000
vt 0.000000 0.000000
vt 0.000000 0.000000
vt 0.000000 0.000000
vt 0.000000 0.000000
vt 0.000000 0.000000
vt 0.000000 0.000000
vt 0.000000 0.000000
vt 0.000000 0.000000
vt 0.000000 0.000000
vt 0.000000 0.000000
vt 0.000000 0.000000
vt 0.000000 0.000000
vt 0.000000 0.000000
vt 0.000000 0.000000
vn 0.0000 -1.0000 0.0000
vn 0.0000 0.0000 1.0000
vn 0.9631 -0.0770 -0.2580
vn 0.2580 -0.0770 0.9631
vn -0.9631 -0.0770 0.2580
vn 0.7050 -0.0770 -0.7050
vn -0.2580 -0.0770 -0.9631
vn 0.7050 -0.0770 0.7050
vn -0.7050 -0.0770 0.7050
vn 0.2580 -0.0770 -0.9631
vn -0.7050 -0.0770 -0.7050
vn 0.9631 -0.0770 0.2581
vn -0.2580 -0.0770 0.9631
vn -0.9631 -0.0770 -0.2580
vn -0.9368 -0.2435 -0.2510
vn -0.2588 -0.0000 0.9659
vn 0.9368 -0.2435 -0.2510
vn 0.2510 -0.2435 0.9368
vn -0.9368 -0.2435 0.2510
vn 0.6858 -0.2435 -0.6858
vn -0.2510 -0.2435 -0.9368
vn 0.6858 -0.2435 0.6858
vn -0.6858 -0.2435 0.6858
vn 0.2510 -0.2435 -0.9368
vn -0.6858 -0.2435 -0.6858
vn 0.9368 -0.2435 0.2510
vn -0.2510 -0.2435 0.9368
vn -0.9659 0.0000 -0.2588
vn 0.9659 0.0000 -0.2588
vn 0.2588 0.0000 0.9659
vn -0.9659 -0.0000 0.2588
vn 0.7071 0.0000 -0.7071
vn -0.2588 -0.0000 -0.9659
vn 0.7071 0.0000 0.7071
vn -0.7071 0.0000 0.7071
vn 0.2588 0.0000 -0.9659
vn -0.7071 -0.0000 -0.7071
vn 0.9659 0.0000 0.2588
vn 0.0000 1.0000 -0.0000
vn -0.9631 0.0770 -0.2580
vn -0.2580 0.0770 0.9631
vn 0.9631 0.0770 0.2581
vn -0.7050 0.0770 -0.7050
vn 0.2581 0.0770 -0.9631
vn -0.7050 0.0770 0.7050
vn 0.7050 0.0770 0.7050
vn -0.2580 0.0770 -0.9631
vn 0.7050 0.0770 -0.7050
vn -0.9631 0.0770 0.2580
vn 0.2580 0.0770 0.9631
vn 0.9631 0.0770 -0.2580
vn -0.1322 -0.9906 0.0354
vn -0.0362 0.9902 0.1350
vn 0.0968 -0.9906 0.0968
vn -0.1322 -0.9906 -0.0354
vn 0.0989 0.9902 -0.0989
vn 0.0354 -0.9906 0.1322
vn -0.0968 -0.9906 -0.0968
vn -0.0989 0.9902 -0.0989
vn -0.0354 -0.9906 -0.1322
vn 0.0362 0.9902 0.1350
vn 0.1350 0.9902 0.0362
vn 0.0354 -0.9906 -0.1322
vn 0.2580 0.0770 -0.9631
vn -0.1350 0.9902 0.0362
vn 0.1322 -0.9906 0.0354
vn 0.0989 0.9902 0.0989
vn -0.0968 -0.9906 0.0968
vn -0.0362 0.9902 -0.1350
vn 0.1322 -0.9906 -0.0354
vn -0.1350 0.9902 -0.0362
vn -0.0354 -0.9906 0.1322
vn 0.1350 0.9902 -0.0362
vn 0.0968 -0.9906 -0.0968
vn 0.0362 0.9902 -0.1350
vn -0.0989 0.9902 0.0989
vn 0.2581 -0.0770 -0.9631
vn -0.2581 0.0770 -0.9631
s off
f 11/1/1 7/2/1 3/3/1
f 19/4/2 32/5/2 31/6/2
f 12/7/2 13/8/2 24/9/2
f 2/10/2 15/11/2 14/12/2
f 9/13/2 22/14/2 21/15/2
f 6/16/2 19/4/2 18/17/2
f 3/3/2 16/18/2 15/11/2
f 10/19/2 23/20/2 22/14/2
f 7/2/2 20/21/2 19/4/2
f 4/22/2 17/23/2 16/18/2
f 11/1/2 24/9/2 23/20/2
f 1/24/2 14/12/2 13/8/2
f 8/25/2 21/15/2 20/21/2
f 5/26/2 18/17/2 17/23/2
f 97/27/3 46/28/3 98/29/3
f 16/18/2 29/30/2 28/31/2
f 23/20/2 36/32/2 35/33/2
f 13/8/2 26/34/2 25/35/2
f 20/21/2 33/36/2 32/5/2
f 17/23/2 30/37/2 29/30/2
f 24/9/2 25/35/2 36/32/2
f 14/12/2 27/38/2 26/34/2
f 21/15/2 34/39/2 33/36/2
f 18/17/2 31/6/2 30/37/2
f 15/11/2 28/31/2 27/38/2
f 22/14/2 35/33/2 34/39/2
f 39/40/2 52/41/2 51/42/2
f 99/43/4 43/44/4 100/45/4
f 101/46/5 40/47/5 102/48/5
f 103/49/6 47/50/6 97/27/6
f 104/51/7 37/52/7 105/53/7
f 106/54/8 44/55/8 99/43/8
f 107/56/9 41/57/9 101/46/9
f 105/53/10 48/58/10 103/49/10
f 108/59/11 38/60/11 104/51/11
f 98/29/12 45/61/12 106/54/12
f 100/45/13 42/62/13 107/56/13
f 102/48/14 39/40/14 108/59/14
f 52/41/15 63/63/15 51/42/15
f 46/28/2 59/64/2 58/65/2
f 43/44/2 56/66/2 55/67/2
f 40/47/2 53/68/2 52/41/2
f 47/50/2 60/69/2 59/64/2
f 37/52/2 50/70/2 49/71/2
f 44/55/2 57/72/2 56/66/2
f 41/57/2 54/73/2 53/68/2
f 48/58/2 49/71/2 60/69/2
f 38/60/2 51/42/2 50/70/2
f 45/61/2 58/65/2 57/72/2
f 42/62/2 55/67/2 54/73/2
f 66/74/16 79/75/16 78/76/16
f 59/64/17 70/77/17 58/65/17
f 56/66/18 67/78/18 55/67/18
f 53/68/19 64/79/19 52/41/19
f 60/69/20 71/80/20 59/64/20
f 50/70/21 61/81/21 49/71/21
f 57/72/22 68/82/22 56/66/22
f 54/73/23 65/83/23 53/68/23
f 49/71/24 72/84/24 60/69/24
f 50/70/25 63/63/25 62/85/25
f 58/65/26 69/86/26 57/72/26
f 55/67/27 66/74/27 54/73/27
f 78/76/2 91/87/2 90/88/2
f 64/79/28 75/89/28 63/63/28
f 71/80/29 82/90/29 70/77/29
f 68/82/30 79/75/30 67/78/30
f 65/83/31 76/91/31 64/79/31
f 72/84/32 83/92/32 71/80/32
f 62/85/33 73/93/33 61/81/33
f 69/86/34 80/94/34 68/82/34
f 65/83/35 78/76/35 77/95/35
f 61/81/36 84/96/36 72/84/36
f 63/63/37 74/97/37 62/85/37
f 70/77/38 81/98/38 69/86/38
f 89/99/39 93/100/39 85/101/39
f 75/89/2 88/102/2 87/103/2
f 82/90/2 95/104/2 94/105/2
f 79/75/2 92/106/2 91/87/2
f 76/91/2 89/99/2 88/102/2
f 83/92/2 96/107/2 95/104/2
f 73/93/2 86/108/2 85/101/2
f 80/94/2 93/100/2 92/106/2
f 77/95/2 90/88/2 89/99/2
f 84/96/2 85/101/2 96/107/2
f 74/97/2 87/103/2 86/108/2
f 81/98/2 94/105/2 93/100/2
f 111/109/40 108/59/40 120/110/40
f 110/111/41 107/56/41 119/112/41
f 109/113/42 106/54/42 118/114/42
f 120/110/43 104/51/43 117/115/43
f 112/116/44 103/49/44 116/117/44
f 119/112/45 101/46/45 115/118/45
f 118/114/46 99/43/46 114/119/46
f 117/115/47 105/53/47 112/116/47
f 116/117/48 97/27/48 113/120/48
f 115/118/49 102/48/49 111/109/49
f 114/119/50 100/45/50 110/111/50
f 113/120/51 98/29/51 109/113/51
f 26/34/2 123/121/2 121/122/2
f 119/112/2 139/123/2 143/124/2
f 33/36/2 130/125/2 129/126/2
f 25/35/2 121/122/2 122/127/2
f 118/114/2 138/128/2 142/129/2
f 32/5/2 129/126/2 128/130/2
f 117/115/2 136/131/2 141/132/2
f 31/6/2 128/130/2 127/133/2
f 111/109/2 144/134/2 135/135/2
f 116/117/2 137/136/2 140/137/2
f 30/37/2 127/133/2 126/138/2
f 110/111/2 143/124/2 134/139/2
f 131/140/52 154/141/52 130/125/52
f 140/137/53 160/142/53 136/131/53
f 121/122/54 147/143/54 145/144/54
f 130/125/55 153/145/55 129/126/55
f 139/123/56 167/146/56 143/124/56
f 121/122/57 146/147/57 122/127/57
f 129/126/58 152/148/58 128/130/58
f 142/129/59 162/149/59 166/150/59
f 128/130/60 151/151/60 127/133/60
f 136/131/61 165/152/61 141/132/61
f 144/134/62 159/153/62 135/135/62
f 127/133/63 150/154/63 126/138/63
f 34/39/2 131/140/2 130/125/2
f 112/116/2 140/137/2 136/131/2
f 27/38/2 124/155/2 123/121/2
f 113/120/2 133/156/2 137/136/2
f 35/33/2 132/157/2 131/140/2
f 120/110/2 141/132/2 144/134/2
f 28/31/2 125/158/2 124/155/2
f 114/119/2 134/139/2 138/128/2
f 36/32/2 122/127/2 132/157/2
f 109/113/2 142/129/2 133/156/2
f 29/30/2 126/138/2 125/158/2
f 115/118/2 135/135/2 139/123/2
f 154/141/51 161/159/51 157/160/51
f 151/151/50 162/149/50 158/161/50
f 149/162/49 159/153/49 148/163/49
f 156/164/48 161/159/48 155/165/48
f 145/144/47 160/142/47 146/147/47
f 152/148/46 166/150/46 162/149/46
f 150/154/45 163/166/45 149/162/45
f 146/147/64 164/167/64 156/164/64
f 147/143/43 165/152/43 145/144/43
f 153/145/42 157/160/42 166/150/42
f 151/151/41 167/146/41 150/154/41
f 148/163/40 168/168/40 147/143/40
f 137/136/65 157/160/65 161/159/65
f 124/155/66 147/143/66 123/121/66
f 141/132/67 168/168/67 144/134/67
f 132/157/68 155/165/68 131/140/68
f 134/139/69 162/149/69 138/128/69
f 125/158/70 148/163/70 124/155/70
f 133/156/71 166/150/71 157/160/71
f 122/127/72 156/164/72 132/157/72
f 139/123/73 159/153/73 163/166/73
f 125/158/74 150/154/74 149/162/74
f 143/124/75 158/161/75 134/139/75
f 137/136/76 164/167/76 140/137/76
f 3/3/1 2/10/1 1/24/1
f 1/24/1 12/7/1 11/1/1
f 11/1/1 10/19/1 9/13/1
f 9/13/1 8/25/1 7/2/1
f 7/2/1 6/16/1 5/26/1
f 5/26/1 4/22/1 3/3/1
f 3/3/1 1/24/1 11/1/1
f 11/1/1 9/13/1 7/2/1
f 7/2/1 5/26/1 3/3/1
f 19/4/2 20/21/2 32/5/2
f 12/7/2 1/24/2 13/8/2
f 2/10/2 3/3/2 15/11/2
f 9/13/2 10/19/2 22/14/2
f 6/16/2 7/2/2 19/4/2
f 3/3/2 4/22/2 16/18/2
f 10/19/2 11/1/2 23/20/2
f 7/2/2 8/25/2 20/21/2
f 4/22/2 5/26/2 17/23/2
f 11/1/2 12/7/2 24/9/2
f 1/24/2 2/10/2 14/12/2
f 8/25/2 9/13/2 21/15/2
f 5/26/2 6/16/2 18/17/2
f 97/27/3 47/50/3 46/28/3
f 16/18/2 17/23/2 29/30/2
f 23/20/2 24/9/2 36/32/2
f 13/8/2 14/12/2 26/34/2
f 20/21/2 21/15/2 33/36/2
f 17/23/2 18/17/2 30/37/2
f 24/9/2 13/8/2 25/35/2
f 14/12/2 15/11/2 27/38/2
f 21/15/2 22/14/2 34/39/2
f 18/17/2 19/4/2 31/6/2
f 15/11/2 16/18/2 28/31/2
f 22/14/2 23/20/2 35/33/2
f 39/40/2 40/47/2 52/41/2
f 99/43/4 44/55/4 43/44/4
f 101/46/5 41/57/5 40/47/5
f 103/49/6 48/58/6 47/50/6
f 104/51/7 38/60/7 37/52/7
f 106/54/8 45/61/8 44/55/8
f 107/56/9 42/62/9 41/57/9
f 105/53/77 37/52/77 48/58/77
f 108/59/11 39/40/11 38/60/11
f 98/29/12 46/28/12 45/61/12
f 100/45/13 43/44/13 42/62/13
f 102/48/14 40/47/14 39/40/14
f 52/41/15 64/79/15 63/63/15
f 46/28/2 47/50/2 59/64/2
f 43/44/2 44/55/2 56/66/2
f 40/47/2 41/57/2 53/68/2
f 47/50/2 48/58/2 60/69/2
f 37/52/2 38/60/2 50/70/2
f 44/55/2 45/61/2 57/72/2
f 41/57/2 42/62/2 54/73/2
f 48/58/2 37/52/2 49/71/2
f 38/60/2 39/40/2 51/42/2
f 45/61/2 46/28/2 58/65/2
f 42/62/2 43/44/2 55/67/2
f 66/74/16 67/78/16 79/75/16
f 59/64/17 71/80/17 70/77/17
f 56/66/18 68/82/18 67/78/18
f 53/68/19 65/83/19 64/79/19
f 60/69/20 72/84/20 71/80/20
f 50/70/21 62/85/21 61/81/21
f 57/72/22 69/86/22 68/82/22
f 54/73/23 66/74/23 65/83/23
f 49/71/24 61/81/24 72/84/24
f 50/70/25 51/42/25 63/63/25
f 58/65/26 70/77/26 69/86/26
f 55/67/27 67/78/27 66/74/27
f 78/76/2 79/75/2 91/87/2
f 64/79/28 76/91/28 75/89/28
f 71/80/29 83/92/29 82/90/29
f 68/82/30 80/94/30 79/75/30
f 65/83/31 77/95/31 76/91/31
f 72/84/32 84/96/32 83/92/32
f 62/85/33 74/97/33 73/93/33
f 69/86/34 81/98/34 80/94/34
f 65/83/35 66/74/35 78/76/35
f 61/81/36 73/93/36 84/96/36
f 63/63/37 75/89/37 74/97/37
f 70/77/38 82/90/38 81/98/38
f 85/101/39 86/108/39 87/103/39
f 87/103/39 88/102/39 85/101/39
f 88/102/39 89/99/39 85/101/39
f 89/99/39 90/88/39 91/87/39
f 91/87/39 92/106/39 93/100/39
f 93/100/39 94/105/39 95/104/39
f 95/104/39 96/107/39 85/101/39
f 89/99/39 91/87/39 93/100/39
f 93/100/39 95/104/39 85/101/39
f 75/89/2 76/91/2 88/102/2
f 82/90/2 83/92/2 95/104/2
f 79/75/2 80/94/2 92/106/2
f 76/91/2 77/95/2 89/99/2
f 83/92/2 84/96/2 96/107/2
f 73/93/2 74/97/2 86/108/2
f 80/94/2 81/98/2 93/100/2
f 77/95/2 78/76/2 90/88/2
f 84/96/2 73/93/2 85/101/2
f 74/97/2 75/89/2 87/103/2
f 81/98/2 82/90/2 94/105/2
f 111/109/40 102/48/40 108/59/40
f 110/111/41 100/45/41 107/56/41
f 109/113/42 98/29/42 106/54/42
f 120/110/43 108/59/43 104/51/43
f 112/116/64 105/53/64 103/49/64
f 119/112/45 107/56/45 101/46/45
f 118/114/46 106/54/46 99/43/46
f 117/115/47 104/51/47 105/53/47
f 116/117/48 103/49/48 97/27/48
f 115/118/49 101/46/49 102/48/49
f 114/119/50 99/43/50 100/45/50
f 113/120/51 97/27/51 98/29/51
f 26/34/2 27/38/2 123/121/2
f 119/112/2 115/118/2 139/123/2
f 33/36/2 34/39/2 130/125/2
f 25/35/2 26/34/2 121/122/2
f 118/114/2 114/119/2 138/128/2
f 32/5/2 33/36/2 129/126/2
f 117/115/2 112/116/2 136/131/2
f 31/6/2 32/5/2 128/130/2
f 111/109/2 120/110/2 144/134/2
f 116/117/2 113/120/2 137/136/2
f 30/37/2 31/6/2 127/133/2
f 110/111/2 119/112/2 143/124/2
f 131/140/52 155/165/52 154/141/52
f 140/137/53 164/167/53 160/142/53
f 121/122/54 123/121/54 147/143/54
f 130/125/55 154/141/55 153/145/55
f 139/123/56 163/166/56 167/146/56
f 121/122/57 145/144/57 146/147/57
f 129/126/58 153/145/58 152/148/58
f 142/129/59 138/128/59 162/149/59
f 128/130/60 152/148/60 151/151/60
f 136/131/61 160/142/61 165/152/61
f 144/134/62 168/168/62 159/153/62
f 127/133/63 151/151/63 150/154/63
f 34/39/2 35/33/2 131/140/2
f 112/116/2 116/117/2 140/137/2
f 27/38/2 28/31/2 124/155/2
f 113/120/2 109/113/2 133/156/2
f 35/33/2 36/32/2 132/157/2
f 120/110/2 117/115/2 141/132/2
f 28/31/2 29/30/2 125/158/2
f 114/119/2 110/111/2 134/139/2
f 36/32/2 25/35/2 122/127/2
f 109/113/2 118/114/2 142/129/2
f 29/30/2 30/37/2 126/138/2
f 115/118/2 111/109/2 135/135/2
f 154/141/51 155/165/51 161/159/51
f 151/151/50 152/148/50 162/149/50
f 149/162/49 163/166/49 159/153/49
f 156/164/48 164/167/48 161/159/48
f 145/144/78 165/152/78 160/142/78
f 152/148/46 153/145/46 166/150/46
f 150/154/45 167/146/45 163/166/45
f 146/147/44 160/142/44 164/167/44
f 147/143/43 168/168/43 165/152/43
f 153/145/42 154/141/42 157/160/42
f 151/151/41 158/161/41 167/146/41
f 148/163/40 159/153/40 168/168/40
f 137/136/65 133/156/65 157/160/65
f 124/155/66 148/163/66 147/143/66
f 141/132/67 165/152/67 168/168/67
f 132/157/68 156/164/68 155/165/68
f 134/139/69 158/161/69 162/149/69
f 125/158/70 149/162/70 148/163/70
f 133/156/71 142/129/71 166/150/71
f 122/127/72 146/147/72 156/164/72
f 139/123/73 135/135/73 159/153/73
f 125/158/74 126/138/74 150/154/74
f 143/124/75 167/146/75 158/161/75
f 137/136/76 161/159/76 164/167/76
