# Blender v2.82 (sub 7) OBJ File: 'ruins.blend'
# www.blender.org
o inner_circle
v -0.459164 0.200000 -4.661967
v -0.000002 0.200000 -4.684524
v -0.913906 0.200000 -4.594513
v -1.359846 0.200000 -4.482810
v -1.792690 0.200000 -4.327937
v -2.208270 0.200000 -4.131382
v -2.602583 0.200000 -3.895040
v -2.971831 0.200000 -3.621187
v -3.312459 0.200000 -3.312459
v -3.621187 0.200000 -2.971831
v -3.895040 0.200000 -2.602583
v -4.131382 0.200000 -2.208270
v -4.327937 0.200000 -1.792690
v -4.482810 0.200000 -1.359846
v -4.594513 0.200000 -0.913905
v -4.661967 0.200000 -0.459163
v -4.684525 0.200000 0.000001
v -4.661967 0.200000 0.459165
v -4.594513 0.200000 0.913906
v -4.482810 0.200000 1.359847
v -4.327936 0.200000 1.792691
v -4.131382 0.200000 2.208271
v -3.895039 0.200000 2.602584
v -3.621186 0.200000 2.971832
v -3.312458 0.200000 3.312460
v -2.971829 0.200000 3.621188
v -2.602580 0.200000 3.895041
v -2.208267 0.200000 4.131383
v -1.792687 0.200000 4.327937
v -1.359843 0.200000 4.482811
v -0.913902 0.200000 4.594513
v -0.459161 0.200000 4.661967
v 0.000004 0.200000 4.684524
v 0.459168 0.200000 4.661967
v 0.913909 0.200000 4.594512
v 1.359849 0.200000 4.482809
v 1.792694 0.200000 4.327934
v 2.208273 0.200000 4.131379
v 2.602586 0.200000 3.895037
v 2.971834 0.200000 3.621183
v 3.312462 0.200000 3.312455
v 3.621188 0.200000 2.971827
v 3.895041 0.200000 2.602579
v 4.131383 0.200000 2.208267
v 4.327937 0.200000 1.792689
v 4.482810 0.200000 1.359845
v 4.594512 0.200000 0.913905
v 4.661966 0.200000 0.459165
v 4.684524 0.200000 0.000002
v 4.661967 0.200000 -0.459161
v 4.594513 0.200000 -0.913902
v 4.482811 0.200000 -1.359841
v 4.327938 0.200000 -1.792685
v 4.131384 0.200000 -2.208264
v 3.895044 0.200000 -2.602576
v 3.621192 0.200000 -2.971824
v 3.312465 0.200000 -3.312452
v 2.971839 0.200000 -3.621179
v 2.602591 0.200000 -3.895033
v 2.208280 0.200000 -4.131376
v 1.792702 0.200000 -4.327931
v 1.359859 0.200000 -4.482806
v 0.913920 0.200000 -4.594509
v 0.459180 0.200000 -4.661965
vt 0.475440 0.999900
vt 0.000100 0.475441
vt 0.524559 0.000100
vt 0.573439 0.004914
vt 0.713993 0.047551
vt 0.621613 0.014496
vt 0.668615 0.028755
vt 0.757311 0.070705
vt 0.870848 0.163883
vt 0.798150 0.097993
vt 0.836118 0.129153
vt 0.902009 0.201853
vt 0.929296 0.242691
vt 0.952450 0.286008
vt 0.971246 0.331386
vt 0.985503 0.378388
vt 0.999900 0.524559
vt 0.995086 0.426561
vt 0.999900 0.475442
vt 0.995086 0.573440
vt 0.952449 0.713993
vt 0.985503 0.621613
vt 0.971245 0.668615
vt 0.929296 0.757310
vt 0.902007 0.798150
vt 0.870848 0.836117
vt 0.836117 0.870849
vt 0.798149 0.902008
vt 0.757309 0.929296
vt 0.713993 0.952449
vt 0.668613 0.971246
vt 0.621611 0.985504
vt 0.573437 0.995086
vt 0.524559 0.999900
vt 0.426558 0.995085
vt 0.378386 0.985503
vt 0.331384 0.971245
vt 0.286006 0.952449
vt 0.242690 0.929295
vt 0.201850 0.902007
vt 0.163882 0.870847
vt 0.129151 0.836116
vt 0.097991 0.798147
vt 0.070704 0.757309
vt 0.047551 0.713993
vt 0.028754 0.668613
vt 0.014497 0.621613
vt 0.004914 0.573440
vt 0.000100 0.524558
vt 0.004914 0.426560
vt 0.047551 0.286007
vt 0.014496 0.378388
vt 0.028755 0.331384
vt 0.070705 0.242690
vt 0.097992 0.201850
vt 0.129152 0.163883
vt 0.163882 0.129152
vt 0.201851 0.097992
vt 0.242689 0.070705
vt 0.286006 0.047551
vt 0.331385 0.028755
vt 0.378384 0.014497
vt 0.426560 0.004914
vt 0.475440 0.000100
vn 0.0000 1.0000 -0.0000
s off
f 33/1/1 49/2/1 2/3/1
f 2/3/1 1/4/1 5/5/1
f 1/4/1 3/6/1 5/5/1
f 3/6/1 4/7/1 5/5/1
f 5/5/1 6/8/1 9/9/1
f 6/8/1 7/10/1 9/9/1
f 7/10/1 8/11/1 9/9/1
f 9/9/1 10/12/1 11/13/1
f 11/13/1 12/14/1 9/9/1
f 12/14/1 13/15/1 9/9/1
f 13/15/1 14/16/1 17/17/1
f 14/16/1 15/18/1 17/17/1
f 15/18/1 16/19/1 17/17/1
f 17/17/1 18/20/1 21/21/1
f 18/20/1 19/22/1 21/21/1
f 19/22/1 20/23/1 21/21/1
f 21/21/1 22/24/1 23/25/1
f 23/25/1 24/26/1 25/27/1
f 25/27/1 26/28/1 27/29/1
f 27/29/1 28/30/1 29/31/1
f 29/31/1 30/32/1 33/1/1
f 30/32/1 31/33/1 33/1/1
f 31/33/1 32/34/1 33/1/1
f 33/1/1 34/35/1 35/36/1
f 35/36/1 36/37/1 33/1/1
f 36/37/1 37/38/1 33/1/1
f 37/38/1 38/39/1 39/40/1
f 39/40/1 40/41/1 37/38/1
f 40/41/1 41/42/1 37/38/1
f 41/42/1 42/43/1 43/44/1
f 43/44/1 44/45/1 45/46/1
f 45/46/1 46/47/1 47/48/1
f 47/48/1 48/49/1 45/46/1
f 48/49/1 49/2/1 45/46/1
f 49/2/1 50/50/1 53/51/1
f 50/50/1 51/52/1 53/51/1
f 51/52/1 52/53/1 53/51/1
f 53/51/1 54/54/1 55/55/1
f 55/55/1 56/56/1 53/51/1
f 56/56/1 57/57/1 53/51/1
f 57/57/1 58/58/1 59/59/1
f 59/59/1 60/60/1 61/61/1
f 61/61/1 62/62/1 63/63/1
f 63/63/1 64/64/1 2/3/1
f 21/21/1 23/25/1 17/17/1
f 23/25/1 25/27/1 17/17/1
f 25/27/1 27/29/1 29/31/1
f 41/42/1 43/44/1 49/2/1
f 43/44/1 45/46/1 49/2/1
f 57/57/1 59/59/1 61/61/1
f 61/61/1 63/63/1 57/57/1
f 63/63/1 2/3/1 57/57/1
f 2/3/1 5/5/1 9/9/1
f 9/9/1 13/15/1 2/3/1
f 13/15/1 17/17/1 2/3/1
f 25/27/1 29/31/1 17/17/1
f 29/31/1 33/1/1 17/17/1
f 33/1/1 37/38/1 49/2/1
f 37/38/1 41/42/1 49/2/1
f 49/2/1 53/51/1 57/57/1
f 49/2/1 57/57/1 2/3/1
f 2/3/1 17/17/1 33/1/1
