# Blender v2.82 (sub 7) OBJ File: ''
# www.blender.org
v 0.000001 -0.000002 10.701129
v 10.701129 0.000000 0.000000
v 0.000000 0.000002 -10.701129
v 7.566842 0.000001 -7.566841
v 0.000000 0.000002 -10.701129
v 12.000000 0.000000 0.000000
v 8.485283 0.000001 -8.485281
v 12.000000 0.000000 0.000000
v 7.566842 0.000001 -7.566841
v 10.701129 0.000000 0.000000
v 8.485283 -0.000001 8.485280
v 8.485283 -0.000001 8.485280
v 7.566842 -0.000001 7.566839
v 0.000001 -0.000002 12.000000
v 0.000001 -0.000002 12.000000
v 7.566842 -0.000001 7.566839
v 0.000001 -0.000002 10.701129
v -8.485281 -0.000001 8.485281
v -8.485281 -0.000001 8.485281
v 8.485283 0.239999 8.485280
v 10.701129 0.240000 0.000000
v 0.000001 0.239998 12.000000
v 7.566842 0.239999 7.566839
v -8.485281 0.239999 8.485281
v -7.566841 -0.000001 7.566841
v 0.000001 0.239998 10.701129
v -12.000000 0.240000 0.000001
v -12.000000 -0.000000 0.000001
v -10.701129 -0.000000 0.000001
v -7.566841 0.239999 7.566841
v -7.566841 0.000001 -7.566841
v -7.566841 0.000001 -7.566841
v 8.485283 0.000001 -8.485281
v 0.000000 0.000002 -12.000000
v 0.000000 0.000002 -12.000000
v -8.485281 0.000001 -8.485281
v -10.701129 -0.000000 0.000001
v -8.485281 0.000001 -8.485281
v -7.566841 -0.000001 7.566841
v -12.000000 -0.000000 0.000001
v 0.000000 0.240002 -10.701129
v -8.485281 0.240001 -8.485281
v -7.566841 0.240001 -7.566841
v -10.701129 0.240000 0.000001
v 12.000000 0.240000 0.000000
v 8.485283 0.240001 -8.485281
v 7.566842 0.240001 -7.566841
v 0.000000 0.240002 -12.000000
vt 1.317275 -1.516933
vt 2.570024 1.288642
vt -0.304032 2.472770
vt 1.414098 2.534297
vt -0.317504 2.504079
vt 2.999505 1.471769
vt 1.559274 2.901865
vt 2.964282 1.457126
vt 1.402215 2.501735
vt 2.601115 1.302653
vt 2.999505 -0.568222
vt 2.964018 -0.552926
vt 2.600194 -0.398616
vt 1.489834 -1.958309
vt 1.475953 -1.922244
vt 2.568147 -0.385859
vt 1.330343 -1.548974
vt -0.606531 -1.925502
vt -0.591332 -1.889780
vt 2.909306 -0.526486
vt 2.649404 1.320985
vt 1.456513 -1.864573
vt 2.647327 -0.420919
vt -0.565129 -1.834599
vt -0.420107 -1.498276
vt 1.347257 -1.598550
vt -1.909455 -0.406118
vt -1.964851 -0.426178
vt -1.632309 -0.295648
vt -0.441425 -1.545705
vt -1.565705 1.354608
vt -1.597009 1.367821
vt 1.573696 2.937711
vt -0.467405 2.868935
vt -0.481492 2.904001
vt -1.950875 1.524412
vt -1.601445 -0.281495
vt -1.985471 1.539810
vt -0.407956 -1.466088
vt -1.999505 -0.440294
vt -0.335196 2.552550
vt -1.897592 1.497809
vt -1.642991 1.390609
vt -1.680340 -0.314021
vt 2.907935 1.436376
vt 1.534219 2.846503
vt 1.435163 2.582231
vt -0.447455 2.812815
vn 0.0000 1.0000 0.0000
vn 0.0000 0.0000 1.0000
vn 0.9239 0.0000 0.3827
vn -0.9239 0.0000 -0.3827
vn 0.3827 0.0000 0.9239
vn -0.3827 0.0000 -0.9239
vn -0.3827 0.0000 0.9239
vn 0.3827 0.0000 -0.9239
vn -0.9239 -0.0000 0.3827
vn 0.9239 0.0000 -0.3827
s 1
f 1/1/1 2/2/1 3/3/1
f 3/3/2 4/4/2 5/5/2
f 6/6/2 7/7/2 8/8/2
f 9/9/2 10/10/2 4/4/2
f 11/11/2 8/8/2 12/12/2
f 2/2/2 13/13/2 10/10/2
f 14/14/2 12/12/2 15/15/2
f 16/16/2 17/17/2 13/13/2
f 18/18/2 15/15/2 19/19/2
f 8/8/3 20/20/3 12/12/3
f 13/13/4 21/21/4 10/10/4
f 12/12/5 22/22/5 15/15/5
f 17/17/6 23/23/6 13/13/6
f 15/15/7 24/24/7 19/19/7
f 25/25/8 26/26/8 17/17/8
f 19/19/9 27/27/9 28/28/9
f 29/29/10 30/30/10 25/25/10
f 31/31/2 5/5/2 32/32/2
f 33/33/2 34/34/2 7/7/2
f 35/35/2 36/36/2 34/34/2
f 37/37/2 32/32/2 29/29/2
f 38/38/2 28/28/2 36/36/2
f 39/39/2 29/29/2 25/25/2
f 40/40/2 19/19/2 28/28/2
f 1/1/2 25/25/2 17/17/2
f 41/41/1 42/42/1 43/43/1
f 43/43/1 27/27/1 44/44/1
f 30/30/1 27/27/1 24/24/1
f 30/30/1 22/22/1 26/26/1
f 26/26/1 20/20/1 23/23/1
f 23/23/1 45/45/1 21/21/1
f 21/21/1 46/46/1 47/47/1
f 47/47/1 48/48/1 41/41/1
f 10/10/9 47/47/9 4/4/9
f 7/7/10 45/45/10 8/8/10
f 4/4/7 41/41/7 5/5/7
f 5/5/5 43/43/5 32/32/5
f 34/34/8 46/46/8 7/7/8
f 36/36/6 48/48/6 34/34/6
f 32/32/3 44/44/3 29/29/3
f 28/28/4 42/42/4 36/36/4
f 3/3/1 31/31/1 37/37/1
f 37/37/1 39/39/1 3/3/1
f 39/39/1 1/1/1 3/3/1
f 1/1/1 16/16/1 2/2/1
f 2/2/1 9/9/1 3/3/1
f 3/3/2 9/9/2 4/4/2
f 6/6/2 33/33/2 7/7/2
f 9/9/2 2/2/2 10/10/2
f 11/11/2 6/6/2 8/8/2
f 2/2/2 16/16/2 13/13/2
f 14/14/2 11/11/2 12/12/2
f 16/16/2 1/1/2 17/17/2
f 18/18/2 14/14/2 15/15/2
f 8/8/3 45/45/3 20/20/3
f 13/13/4 23/23/4 21/21/4
f 12/12/5 20/20/5 22/22/5
f 17/17/6 26/26/6 23/23/6
f 15/15/7 22/22/7 24/24/7
f 25/25/8 30/30/8 26/26/8
f 19/19/9 24/24/9 27/27/9
f 29/29/10 44/44/10 30/30/10
f 31/31/2 3/3/2 5/5/2
f 33/33/2 35/35/2 34/34/2
f 35/35/2 38/38/2 36/36/2
f 37/37/2 31/31/2 32/32/2
f 38/38/2 40/40/2 28/28/2
f 39/39/2 37/37/2 29/29/2
f 40/40/2 18/18/2 19/19/2
f 1/1/2 39/39/2 25/25/2
f 41/41/1 48/48/1 42/42/1
f 43/43/1 42/42/1 27/27/1
f 30/30/1 44/44/1 27/27/1
f 30/30/1 24/24/1 22/22/1
f 26/26/1 22/22/1 20/20/1
f 23/23/1 20/20/1 45/45/1
f 21/21/1 45/45/1 46/46/1
f 47/47/1 46/46/1 48/48/1
f 10/10/9 21/21/9 47/47/9
f 7/7/10 46/46/10 45/45/10
f 4/4/7 47/47/7 41/41/7
f 5/5/5 41/41/5 43/43/5
f 34/34/8 48/48/8 46/46/8
f 36/36/6 42/42/6 48/48/6
f 32/32/3 43/43/3 44/44/3
f 28/28/4 27/27/4 42/42/4
